<mxfile host="65bd71144e" scale="2" border="0">
    <diagram id="23Loc5n1_btLOtWKShDH" name="Page-1">
        <mxGraphModel dx="626" dy="368" grid="1" gridSize="10" guides="1" tooltips="1" connect="1" arrows="1" fold="1" page="1" pageScale="1" pageWidth="850" pageHeight="1100" math="1" shadow="0">
            <root>
                <mxCell id="0"/>
                <mxCell id="1" parent="0"/>
                <mxCell id="59" value="&lt;font style=&quot;font-size: 14px;&quot; face=&quot;Times New Roman&quot;&gt;Jumping&lt;/font&gt;" style="text;html=1;align=center;verticalAlign=middle;resizable=0;points=[];autosize=1;strokeColor=none;fillColor=none;" vertex="1" parent="1">
                    <mxGeometry x="320" y="110" width="70" height="30" as="geometry"/>
                </mxCell>
                <mxCell id="3" value="" style="shape=parallelogram;perimeter=parallelogramPerimeter;whiteSpace=wrap;html=1;fixedSize=1;fillColor=none;size=30;" vertex="1" parent="1">
                    <mxGeometry x="120" y="180" width="110" height="20" as="geometry"/>
                </mxCell>
                <mxCell id="4" value="" style="shape=parallelogram;perimeter=parallelogramPerimeter;whiteSpace=wrap;html=1;fixedSize=1;fillColor=none;size=30;" vertex="1" parent="1">
                    <mxGeometry x="240" y="180" width="110" height="20" as="geometry"/>
                </mxCell>
                <mxCell id="5" value="" style="shape=parallelogram;perimeter=parallelogramPerimeter;whiteSpace=wrap;html=1;fixedSize=1;fillColor=none;size=30;" vertex="1" parent="1">
                    <mxGeometry x="360" y="180" width="110" height="20" as="geometry"/>
                </mxCell>
                <mxCell id="6" value="" style="shape=parallelogram;perimeter=parallelogramPerimeter;whiteSpace=wrap;html=1;fixedSize=1;fillColor=none;size=30;" vertex="1" parent="1">
                    <mxGeometry x="480" y="180" width="110" height="20" as="geometry"/>
                </mxCell>
                <mxCell id="20" value="" style="shape=parallelogram;perimeter=parallelogramPerimeter;whiteSpace=wrap;html=1;fixedSize=1;fillColor=none;size=30;" vertex="1" parent="1">
                    <mxGeometry x="600" y="180" width="110" height="20" as="geometry"/>
                </mxCell>
                <mxCell id="32" value="" style="group" vertex="1" connectable="0" parent="1">
                    <mxGeometry x="130" y="160" width="89.99999999999989" height="40" as="geometry"/>
                </mxCell>
                <mxCell id="27" value="" style="edgeStyle=none;orthogonalLoop=1;jettySize=auto;html=1;endArrow=classicThin;endFill=1;" edge="1" parent="32">
                    <mxGeometry width="100" relative="1" as="geometry">
                        <mxPoint y="40" as="sourcePoint"/>
                        <mxPoint x="10" y="20" as="targetPoint"/>
                        <Array as="points"/>
                    </mxGeometry>
                </mxCell>
                <mxCell id="28" value="" style="edgeStyle=none;orthogonalLoop=1;jettySize=auto;html=1;endArrow=classicThin;endFill=1;" edge="1" parent="32">
                    <mxGeometry width="100" relative="1" as="geometry">
                        <mxPoint x="89.99999999999989" y="20" as="sourcePoint"/>
                        <mxPoint x="80" as="targetPoint"/>
                        <Array as="points"/>
                    </mxGeometry>
                </mxCell>
                <mxCell id="29" value="" style="edgeStyle=none;orthogonalLoop=1;jettySize=auto;html=1;endArrow=classicThin;endFill=1;" edge="1" parent="32">
                    <mxGeometry width="100" relative="1" as="geometry">
                        <mxPoint x="59.999999999999886" y="40" as="sourcePoint"/>
                        <mxPoint x="50" y="20" as="targetPoint"/>
                        <Array as="points"/>
                    </mxGeometry>
                </mxCell>
                <mxCell id="30" value="" style="edgeStyle=none;orthogonalLoop=1;jettySize=auto;html=1;endArrow=classicThin;endFill=1;" edge="1" parent="32">
                    <mxGeometry width="100" relative="1" as="geometry">
                        <mxPoint x="30" y="20" as="sourcePoint"/>
                        <mxPoint x="40" as="targetPoint"/>
                        <Array as="points"/>
                    </mxGeometry>
                </mxCell>
                <mxCell id="40" style="edgeStyle=none;html=1;dashed=1;dashPattern=1 1;endArrow=classic;endFill=1;" edge="1" parent="1">
                    <mxGeometry relative="1" as="geometry">
                        <mxPoint x="210" y="140" as="sourcePoint"/>
                        <mxPoint x="260" y="140" as="targetPoint"/>
                    </mxGeometry>
                </mxCell>
                <mxCell id="10" value="" style="shape=cube;whiteSpace=wrap;html=1;boundedLbl=1;backgroundOutline=1;darkOpacity=0.05;darkOpacity2=0.1;fillColor=#cdeb8b;size=10;flipV=0;flipH=1;strokeColor=#36393d;" vertex="1" parent="1">
                    <mxGeometry x="150" y="130" width="50" height="20" as="geometry"/>
                </mxCell>
                <mxCell id="33" value="" style="shape=cube;whiteSpace=wrap;html=1;boundedLbl=1;backgroundOutline=1;darkOpacity=0.05;darkOpacity2=0.1;fillColor=#ffff88;size=10;flipV=0;flipH=1;strokeColor=#36393d;" vertex="1" parent="1">
                    <mxGeometry x="270" y="130" width="50" height="20" as="geometry"/>
                </mxCell>
                <mxCell id="39" value="" style="group" vertex="1" connectable="0" parent="1">
                    <mxGeometry x="250" y="160" width="89.99999999999989" height="40" as="geometry"/>
                </mxCell>
                <mxCell id="35" value="" style="edgeStyle=none;orthogonalLoop=1;jettySize=auto;html=1;dashed=1;endArrow=classicThin;endFill=1;" edge="1" parent="39">
                    <mxGeometry width="100" relative="1" as="geometry">
                        <mxPoint y="40" as="sourcePoint"/>
                        <mxPoint x="10" y="20" as="targetPoint"/>
                        <Array as="points"/>
                    </mxGeometry>
                </mxCell>
                <mxCell id="36" value="" style="edgeStyle=none;orthogonalLoop=1;jettySize=auto;html=1;dashed=1;endArrow=classicThin;endFill=1;" edge="1" parent="39">
                    <mxGeometry width="100" relative="1" as="geometry">
                        <mxPoint x="89.99999999999989" y="20" as="sourcePoint"/>
                        <mxPoint x="80" as="targetPoint"/>
                        <Array as="points"/>
                    </mxGeometry>
                </mxCell>
                <mxCell id="37" value="" style="edgeStyle=none;orthogonalLoop=1;jettySize=auto;html=1;endArrow=classicThin;endFill=1;" edge="1" parent="39">
                    <mxGeometry width="100" relative="1" as="geometry">
                        <mxPoint x="59.999999999999886" y="40" as="sourcePoint"/>
                        <mxPoint x="50" y="20" as="targetPoint"/>
                        <Array as="points"/>
                    </mxGeometry>
                </mxCell>
                <mxCell id="38" value="" style="edgeStyle=none;orthogonalLoop=1;jettySize=auto;html=1;endArrow=classicThin;endFill=1;" edge="1" parent="39">
                    <mxGeometry width="100" relative="1" as="geometry">
                        <mxPoint x="30" y="20" as="sourcePoint"/>
                        <mxPoint x="40" as="targetPoint"/>
                        <Array as="points"/>
                    </mxGeometry>
                </mxCell>
                <mxCell id="41" value="" style="group" vertex="1" connectable="0" parent="1">
                    <mxGeometry x="490" y="160" width="89.99999999999989" height="40" as="geometry"/>
                </mxCell>
                <mxCell id="42" value="" style="edgeStyle=none;orthogonalLoop=1;jettySize=auto;html=1;endArrow=classicThin;endFill=1;" edge="1" parent="41">
                    <mxGeometry width="100" relative="1" as="geometry">
                        <mxPoint y="40" as="sourcePoint"/>
                        <mxPoint x="10" y="20" as="targetPoint"/>
                        <Array as="points"/>
                    </mxGeometry>
                </mxCell>
                <mxCell id="43" value="" style="edgeStyle=none;orthogonalLoop=1;jettySize=auto;html=1;endArrow=classicThin;endFill=1;" edge="1" parent="41">
                    <mxGeometry width="100" relative="1" as="geometry">
                        <mxPoint x="89.99999999999989" y="20" as="sourcePoint"/>
                        <mxPoint x="80" as="targetPoint"/>
                        <Array as="points"/>
                    </mxGeometry>
                </mxCell>
                <mxCell id="44" value="" style="edgeStyle=none;orthogonalLoop=1;jettySize=auto;html=1;endArrow=classicThin;endFill=1;" edge="1" parent="41">
                    <mxGeometry width="100" relative="1" as="geometry">
                        <mxPoint x="59.999999999999886" y="40" as="sourcePoint"/>
                        <mxPoint x="50" y="20" as="targetPoint"/>
                        <Array as="points"/>
                    </mxGeometry>
                </mxCell>
                <mxCell id="45" value="" style="edgeStyle=none;orthogonalLoop=1;jettySize=auto;html=1;endArrow=classicThin;endFill=1;" edge="1" parent="41">
                    <mxGeometry width="100" relative="1" as="geometry">
                        <mxPoint x="30" y="20" as="sourcePoint"/>
                        <mxPoint x="40" as="targetPoint"/>
                        <Array as="points"/>
                    </mxGeometry>
                </mxCell>
                <mxCell id="46" value="" style="group" vertex="1" connectable="0" parent="1">
                    <mxGeometry x="610" y="160" width="89.99999999999989" height="40" as="geometry"/>
                </mxCell>
                <mxCell id="47" value="" style="edgeStyle=none;orthogonalLoop=1;jettySize=auto;html=1;endArrow=classicThin;endFill=1;" edge="1" parent="46">
                    <mxGeometry width="100" relative="1" as="geometry">
                        <mxPoint y="40" as="sourcePoint"/>
                        <mxPoint x="10" y="20" as="targetPoint"/>
                        <Array as="points"/>
                    </mxGeometry>
                </mxCell>
                <mxCell id="48" value="" style="edgeStyle=none;orthogonalLoop=1;jettySize=auto;html=1;endArrow=classicThin;endFill=1;" edge="1" parent="46">
                    <mxGeometry width="100" relative="1" as="geometry">
                        <mxPoint x="89.99999999999989" y="20" as="sourcePoint"/>
                        <mxPoint x="80" as="targetPoint"/>
                        <Array as="points"/>
                    </mxGeometry>
                </mxCell>
                <mxCell id="49" value="" style="edgeStyle=none;orthogonalLoop=1;jettySize=auto;html=1;dashed=1;endArrow=classicThin;endFill=1;" edge="1" parent="46">
                    <mxGeometry width="100" relative="1" as="geometry">
                        <mxPoint x="59.999999999999886" y="40" as="sourcePoint"/>
                        <mxPoint x="50" y="20" as="targetPoint"/>
                        <Array as="points"/>
                    </mxGeometry>
                </mxCell>
                <mxCell id="50" value="" style="edgeStyle=none;orthogonalLoop=1;jettySize=auto;html=1;dashed=1;endArrow=classicThin;endFill=1;" edge="1" parent="46">
                    <mxGeometry width="100" relative="1" as="geometry">
                        <mxPoint x="30" y="20" as="sourcePoint"/>
                        <mxPoint x="40" as="targetPoint"/>
                        <Array as="points"/>
                    </mxGeometry>
                </mxCell>
                <mxCell id="51" value="" style="group" vertex="1" connectable="0" parent="1">
                    <mxGeometry x="370" y="160" width="89.99999999999989" height="40" as="geometry"/>
                </mxCell>
                <mxCell id="52" value="" style="edgeStyle=none;orthogonalLoop=1;jettySize=auto;html=1;endArrow=classicThin;endFill=1;" edge="1" parent="51">
                    <mxGeometry width="100" relative="1" as="geometry">
                        <mxPoint y="40" as="sourcePoint"/>
                        <mxPoint x="10" y="20" as="targetPoint"/>
                        <Array as="points"/>
                    </mxGeometry>
                </mxCell>
                <mxCell id="53" value="" style="edgeStyle=none;orthogonalLoop=1;jettySize=auto;html=1;endArrow=classicThin;endFill=1;" edge="1" parent="51">
                    <mxGeometry width="100" relative="1" as="geometry">
                        <mxPoint x="89.99999999999989" y="20" as="sourcePoint"/>
                        <mxPoint x="80" as="targetPoint"/>
                        <Array as="points"/>
                    </mxGeometry>
                </mxCell>
                <mxCell id="54" value="" style="edgeStyle=none;orthogonalLoop=1;jettySize=auto;html=1;endArrow=classicThin;endFill=1;" edge="1" parent="51">
                    <mxGeometry width="100" relative="1" as="geometry">
                        <mxPoint x="59.999999999999886" y="40" as="sourcePoint"/>
                        <mxPoint x="50" y="20" as="targetPoint"/>
                        <Array as="points"/>
                    </mxGeometry>
                </mxCell>
                <mxCell id="55" value="" style="edgeStyle=none;orthogonalLoop=1;jettySize=auto;html=1;endArrow=classicThin;endFill=1;" edge="1" parent="51">
                    <mxGeometry width="100" relative="1" as="geometry">
                        <mxPoint x="30" y="20" as="sourcePoint"/>
                        <mxPoint x="40" as="targetPoint"/>
                        <Array as="points"/>
                    </mxGeometry>
                </mxCell>
                <mxCell id="56" value="&lt;font style=&quot;font-size: 14px;&quot; face=&quot;Times New Roman&quot;&gt;Trotting&lt;/font&gt;" style="text;html=1;align=center;verticalAlign=middle;resizable=0;points=[];autosize=1;strokeColor=none;fillColor=none;" vertex="1" parent="1">
                    <mxGeometry x="200" y="110" width="70" height="30" as="geometry"/>
                </mxCell>
                <mxCell id="58" value="" style="shape=cube;whiteSpace=wrap;html=1;boundedLbl=1;backgroundOutline=1;darkOpacity=0.05;darkOpacity2=0.1;fillColor=#ffcccc;size=10;flipV=0;flipH=1;strokeColor=#36393d;" vertex="1" parent="1">
                    <mxGeometry x="390" y="130" width="50" height="20" as="geometry"/>
                </mxCell>
                <mxCell id="61" value="" style="curved=1;endArrow=classic;html=1;dashed=1;dashPattern=1 1;fontFamily=Times New Roman;fontSize=14;" edge="1" parent="1">
                    <mxGeometry width="50" height="50" relative="1" as="geometry">
                        <mxPoint x="310" y="120" as="sourcePoint"/>
                        <mxPoint x="410" y="120" as="targetPoint"/>
                        <Array as="points">
                            <mxPoint x="320" y="100"/>
                            <mxPoint x="360" y="90"/>
                            <mxPoint x="400" y="100"/>
                        </Array>
                    </mxGeometry>
                </mxCell>
                <mxCell id="62" value="&lt;font style=&quot;font-size: 14px;&quot; face=&quot;Times New Roman&quot;&gt;Jumping&lt;/font&gt;" style="text;html=1;align=center;verticalAlign=middle;resizable=0;points=[];autosize=1;strokeColor=none;fillColor=none;" vertex="1" parent="1">
                    <mxGeometry x="440" y="110" width="70" height="30" as="geometry"/>
                </mxCell>
                <mxCell id="63" value="" style="shape=cube;whiteSpace=wrap;html=1;boundedLbl=1;backgroundOutline=1;darkOpacity=0.05;darkOpacity2=0.1;fillColor=#ffff88;size=10;flipV=0;flipH=1;strokeColor=#36393d;" vertex="1" parent="1">
                    <mxGeometry x="510" y="130" width="50" height="20" as="geometry"/>
                </mxCell>
                <mxCell id="64" value="" style="curved=1;endArrow=classic;html=1;dashed=1;dashPattern=1 1;fontFamily=Times New Roman;fontSize=14;" edge="1" parent="1">
                    <mxGeometry width="50" height="50" relative="1" as="geometry">
                        <mxPoint x="430" y="120" as="sourcePoint"/>
                        <mxPoint x="530" y="120" as="targetPoint"/>
                        <Array as="points">
                            <mxPoint x="440" y="100"/>
                            <mxPoint x="480" y="90"/>
                            <mxPoint x="520" y="100"/>
                        </Array>
                    </mxGeometry>
                </mxCell>
                <mxCell id="65" style="edgeStyle=none;html=1;dashed=1;dashPattern=1 1;endArrow=classic;endFill=1;" edge="1" parent="1">
                    <mxGeometry relative="1" as="geometry">
                        <mxPoint x="570" y="140" as="sourcePoint"/>
                        <mxPoint x="620" y="140" as="targetPoint"/>
                    </mxGeometry>
                </mxCell>
                <mxCell id="66" value="" style="shape=cube;whiteSpace=wrap;html=1;boundedLbl=1;backgroundOutline=1;darkOpacity=0.05;darkOpacity2=0.1;fillColor=#cdeb8b;size=10;flipV=0;flipH=1;strokeColor=#36393d;" vertex="1" parent="1">
                    <mxGeometry x="630" y="130" width="50" height="20" as="geometry"/>
                </mxCell>
                <mxCell id="67" value="&lt;font style=&quot;font-size: 14px;&quot; face=&quot;Times New Roman&quot;&gt;Trotting&lt;/font&gt;" style="text;html=1;align=center;verticalAlign=middle;resizable=0;points=[];autosize=1;strokeColor=none;fillColor=none;" vertex="1" parent="1">
                    <mxGeometry x="560" y="110" width="70" height="30" as="geometry"/>
                </mxCell>
            </root>
        </mxGraphModel>
    </diagram>
</mxfile>